<svg xmlns="http://www.w3.org/2000/svg" width="57.041" height="50"><g data-name="013-alternative" fill="#fff"><path data-name="Path 3" d="M11.797 4.865h-2a.836.836 0 0 1 0-1.671h2a.836.836 0 0 1 0 1.671zm0 0"/><path data-name="Path 4" d="M17.795 4.865h-3.691a.836.836 0 0 1 0-1.671h3.691a.836.836 0 1 1 0 1.671zm0 0"/><path data-name="Path 5" d="M11.651 46.708h4.292a.836.836 0 0 0 0-1.671h-4.292a.836.836 0 0 0 0 1.671zm0 0"/><path data-name="Path 6" d="M9.937 26.798H4.715a.836.836 0 1 0 0 1.671h5.222a.836.836 0 1 0 0-1.671zm0 0"/><path data-name="Path 7" d="M15.159 28.469a.836.836 0 1 0 0-1.671h-2.021a.836.836 0 1 0 0 1.671zm0 0"/><path data-name="Path 8" d="M22.879 26.798h-4.766a.836.836 0 0 0 0 1.671h4.768a.836.836 0 0 0 0-1.671zm0 0"/><path data-name="Path 9" d="M4.715 31.909h3.33a.836.836 0 0 0 0-1.671h-3.33a.836.836 0 0 0 0 1.671zm0 0"/><path data-name="Path 10" d="M9.536 31.074a.836.836 0 0 0 .836.836h6.037a.836.836 0 0 0 0-1.671h-6.038a.836.836 0 0 0-.835.835zm0 0"/><path data-name="Path 11" d="M22.883 30.238H19.21a.836.836 0 0 0 0 1.671h3.673a.836.836 0 0 0 0-1.671zm0 0"/><path data-name="Path 12" d="M4.715 35.076h4.219a.836.836 0 0 0 0-1.671H4.715a.836.836 0 0 0 0 1.671zm0 0"/><path data-name="Path 13" d="M19.614 34.24a.836.836 0 0 0-.836-.836h-7.15a.836.836 0 0 0 0 1.671h7.148a.835.835 0 0 0 .838-.835zm0 0"/><path data-name="Path 14" d="M22.879 33.404h-1.641a.836.836 0 0 0 0 1.671h1.641a.836.836 0 0 0 0-1.671zm0 0"/><path data-name="Path 15" d="M11.98 36.844H4.715a.836.836 0 0 0 0 1.671h7.265a.836.836 0 0 0 0-1.671zm0 0"/><path data-name="Path 16" d="M17.605 36.844h-3.164a.836.836 0 0 0 0 1.671h3.164a.836.836 0 0 0 0-1.671zm0 0"/><path data-name="Path 17" d="M22.879 36.844h-3.047a.836.836 0 0 0 0 1.671h3.047a.836.836 0 0 0 0-1.671zm0 0"/><path data-name="Path 18" d="M24.022 0H10.8a.836.836 0 0 0 0 1.671h13.222a1.9 1.9 0 0 1 1.9 1.9V6.8H1.671V3.571a1.9 1.9 0 0 1 1.9-1.9h2.055a.836.836 0 1 0 0-1.671H3.571A3.575 3.575 0 0 0 0 3.571v42.858A3.575 3.575 0 0 0 3.571 50h20.452a3.575 3.575 0 0 0 3.571-3.571V3.571A3.575 3.575 0 0 0 24.022 0zm1.9 8.474v33.052H1.671V8.474zm0 37.955a1.9 1.9 0 0 1-1.9 1.9H3.571a1.9 1.9 0 0 1-1.9-1.9V43.2h24.251zm0 0"/><path data-name="Path 19" d="M4.855 25.432h17.88a1.632 1.632 0 0 0 1.631-1.631v-6.733a1.632 1.632 0 0 0-1.631-1.631H4.855a1.633 1.633 0 0 0-1.631 1.631V23.8a1.633 1.633 0 0 0 1.631 1.632zm3.055-1.671l3.777-3.775 3 3.376a.835.835 0 0 0 1.39-.889l1.386-1.386 2.372 2.674zM4.896 17.11h17.798v6.651h-.625l-3.553-4a1.393 1.393 0 0 0-2.026-.06l-1.5 1.5-2.25-2.536a1.393 1.393 0 0 0-2.026-.061L5.546 23.77h-.65zm0 0"/><path data-name="Path 20" d="M11.908 14.085a.363.363 0 0 1 .013-.071l1.208-3.961c.071-.228.364-.338.662-.338s.591.11.662.338l1.214 3.961a.333.333 0 0 1 .013.071c0 .24-.37.416-.649.416-.162 0-.292-.052-.331-.188l-.221-.812h-1.371l-.221.812c-.039.136-.169.188-.331.188-.276-.001-.648-.176-.648-.416zm2.357-1.363l-.474-1.741-.474 1.741zm0 0"/><path data-name="Path 21" d="M53.47.001H33.018a3.575 3.575 0 0 0-3.571 3.57v42.858A3.575 3.575 0 0 0 33.018 50h20.451a3.575 3.575 0 0 0 3.571-3.571V32.093a.836.836 0 1 0-1.671 0v9.433H31.118V8.474h24.251v18.419a.836.836 0 1 0 1.671 0V3.571a3.575 3.575 0 0 0-3.57-3.57zm1.9 43.2v3.232a1.9 1.9 0 0 1-1.9 1.9H33.018a1.9 1.9 0 0 1-1.9-1.9v-3.232zm0-36.394H31.118V3.571a1.9 1.9 0 0 1 1.9-1.9h20.451a1.9 1.9 0 0 1 1.9 1.9zm0 0"/><path data-name="Path 22" d="M41.099 46.708h4.292a.836.836 0 0 0 0-1.671h-4.292a.836.836 0 1 0 0 1.671zm0 0"/><path data-name="Path 23" d="M41.244 3.194h-2a.836.836 0 1 0 0 1.671h2a.836.836 0 1 0 0-1.671zm0 0"/><path data-name="Path 24" d="M47.243 3.194h-3.691a.836.836 0 1 0 0 1.671h3.691a.836.836 0 0 0 0-1.671zm0 0"/><path data-name="Path 25" d="M44.754 10.91c0-.922-.649-1.156-1.3-1.156h-1.331c-.221 0-.442.1-.442.312v4.13c0 .162.169.305.442.305h1.441a1.211 1.211 0 0 0 1.306-1.4v-.136a.946.946 0 0 0-.669-1.039 1.011 1.011 0 0 0 .552-1.019zm-2.065-.273h.682c.247 0 .37.227.37.454a.4.4 0 0 1-.37.448h-.682zm1.169 2.383c0 .416-.195.6-.52.6h-.649v-1.3h.649c.325 0 .52.156.52.6zm0 0"/><path data-name="Path 26" d="M53.813 23.801v-6.734a1.632 1.632 0 0 0-1.631-1.631H34.306a1.633 1.633 0 0 0-1.627 1.631v6.732a1.633 1.633 0 0 0 1.631 1.631h17.869a1.632 1.632 0 0 0 1.634-1.629zm-16.452-.04l3.777-3.775 3 3.376a.835.835 0 0 0 1.39-.889l1.386-1.386 2.373 2.674zm14.781 0h-.626l-3.552-4a1.394 1.394 0 0 0-2.027-.061l-1.5 1.5-2.25-2.536a1.393 1.393 0 0 0-2.026-.061l-5.168 5.166h-.65v-6.651h17.8zm0 0"/><path data-name="Path 27" d="M35.578 26.954h-2.011a.836.836 0 1 0 0 1.671h2.011a.836.836 0 0 0 0-1.671zm0 0"/><path data-name="Path 28" d="M53.032 26.954H38.611a.836.836 0 1 0 0 1.671h14.422a.836.836 0 1 0 0-1.671zm0 0"/><path data-name="Path 29" d="M35.578 30.238h-2.011a.836.836 0 1 0 0 1.671h2.011a.836.836 0 0 0 0-1.671zm0 0"/><path data-name="Path 30" d="M53.032 30.238H38.611a.836.836 0 1 0 0 1.671h14.422a.836.836 0 0 0 0-1.671zm0 0"/><path data-name="Path 31" d="M35.578 33.522h-2.011a.836.836 0 1 0 0 1.671h2.011a.836.836 0 0 0 0-1.671zm0 0"/><path data-name="Path 32" d="M53.032 33.522H38.611a.836.836 0 1 0 0 1.671h14.422a.836.836 0 1 0 0-1.671zm0 0"/><path data-name="Path 33" d="M35.578 36.806h-2.011a.836.836 0 1 0 0 1.671h2.011a.836.836 0 0 0 0-1.671zm0 0"/><path data-name="Path 34" d="M53.032 36.806H38.611a.836.836 0 1 0 0 1.671h14.422a.836.836 0 0 0 0-1.671zm0 0"/></g></svg>