<svg xmlns="http://www.w3.org/2000/svg" width="57.041" height="50" viewBox="0 0 57.041 50">
  <g id="_013-alternative" data-name="013-alternative" transform="translate(0 -0.499)">
    <path id="Path_3" data-name="Path 3" d="M83.281,30.843h-2a.836.836,0,0,1,0-1.671h2a.836.836,0,0,1,0,1.671Zm0,0" transform="translate(-71.484 -25.479)" fill="#fff"/>
    <path id="Path_4" data-name="Path 4" d="M123.628,30.843h-3.691a.836.836,0,0,1,0-1.671h3.691a.836.836,0,1,1,0,1.671Zm0,0" transform="translate(-105.833 -25.479)" fill="#fff"/>
    <path id="Path_5" data-name="Path 5" d="M97.914,406.421h4.292a.836.836,0,0,0,0-1.671H97.914a.836.836,0,0,0,0,1.671Zm0,0" transform="translate(-86.263 -359.214)" fill="#fff"/>
    <path id="Path_6" data-name="Path 6" d="M40.878,241.035H35.656a.836.836,0,1,0,0,1.671h5.222a.836.836,0,1,0,0-1.671Zm0,0" transform="translate(-30.941 -213.738)" fill="#fff"/>
    <path id="Path_7" data-name="Path 7" d="M113.279,242.706a.836.836,0,1,0,0-1.671h-2.021a.836.836,0,1,0,0,1.671Zm0,0" transform="translate(-98.12 -213.738)" fill="#fff"/>
    <path id="Path_8" data-name="Path 8" d="M160.666,241.035H155.9a.836.836,0,0,0,0,1.671h4.768a.836.836,0,0,0,0-1.671Zm0,0" transform="translate(-137.787 -213.738)" fill="#fff"/>
    <path id="Path_9" data-name="Path 9" d="M35.656,273.589h3.33a.836.836,0,0,0,0-1.671h-3.33a.836.836,0,0,0,0,1.671Zm0,0" transform="translate(-30.941 -241.181)" fill="#fff"/>
    <path id="Path_10" data-name="Path 10" d="M85.594,272.754a.836.836,0,0,0,.836.836h6.037a.836.836,0,0,0,0-1.671H86.429A.836.836,0,0,0,85.594,272.754Zm0,0" transform="translate(-76.058 -241.181)" fill="#fff"/>
    <path id="Path_11" data-name="Path 11" d="M169.4,271.918h-3.673a.836.836,0,0,0,0,1.671H169.4a.836.836,0,0,0,0-1.671Zm0,0" transform="translate(-146.517 -241.181)" fill="#fff"/>
    <path id="Path_12" data-name="Path 12" d="M35.656,302h4.219a.836.836,0,0,0,0-1.671H35.656a.836.836,0,0,0,0,1.671Zm0,0" transform="translate(-30.941 -266.425)" fill="#fff"/>
    <path id="Path_13" data-name="Path 13" d="M105.7,301.164a.836.836,0,0,0-.836-.836H97.714a.836.836,0,0,0,0,1.671h7.148A.835.835,0,0,0,105.7,301.164Zm0,0" transform="translate(-86.086 -266.425)" fill="#fff"/>
    <path id="Path_14" data-name="Path 14" d="M185.609,300.328h-1.641a.836.836,0,0,0,0,1.671h1.641a.836.836,0,0,0,0-1.671Zm0,0" transform="translate(-162.73 -266.425)" fill="#fff"/>
    <path id="Path_15" data-name="Path 15" d="M42.921,331.211H35.656a.836.836,0,0,0,0,1.671h7.265a.836.836,0,0,0,0-1.671Zm0,0" transform="translate(-30.941 -293.868)" fill="#fff"/>
    <path id="Path_16" data-name="Path 16" d="M126.124,331.211H122.96a.836.836,0,0,0,0,1.671h3.164a.836.836,0,0,0,0-1.671Zm0,0" transform="translate(-108.519 -293.868)" fill="#fff"/>
    <path id="Path_17" data-name="Path 17" d="M174.394,331.211h-3.047a.836.836,0,0,0,0,1.671h3.047a.836.836,0,0,0,0-1.671Zm0,0" transform="translate(-151.515 -293.868)" fill="#fff"/>
    <path id="Path_18" data-name="Path 18" d="M24.022.5H10.8a.836.836,0,0,0,0,1.671H24.022a1.9,1.9,0,0,1,1.9,1.9V7.3H1.671V4.071a1.9,1.9,0,0,1,1.9-1.9H5.626A.836.836,0,1,0,5.626.5H3.571A3.575,3.575,0,0,0,0,4.071V46.929A3.575,3.575,0,0,0,3.571,50.5H24.023a3.575,3.575,0,0,0,3.571-3.571V4.071A3.575,3.575,0,0,0,24.022.5Zm1.9,8.474V42.026H1.671V8.974Zm0,37.955a1.9,1.9,0,0,1-1.9,1.9H3.571a1.9,1.9,0,0,1-1.9-1.9V43.7H25.922Zm0,0" transform="translate(0 -0.001)" fill="#fff"/>
    <path id="Path_19" data-name="Path 19" d="M30.6,149.064H48.48a1.632,1.632,0,0,0,1.631-1.631V140.7a1.632,1.632,0,0,0-1.631-1.631H30.6a1.633,1.633,0,0,0-1.631,1.631v6.732A1.633,1.633,0,0,0,30.6,149.064Zm3.055-1.671,3.777-3.775,3,3.376a.835.835,0,0,0,1.39-.889l1.386-1.386,2.372,2.674Zm-3.014-6.651H48.439v6.651h-.625l-3.553-4a1.393,1.393,0,0,0-2.026-.06l-1.5,1.5-2.25-2.536a1.393,1.393,0,0,0-2.026-.061l-5.168,5.166h-.65Zm0,0" transform="translate(-25.745 -123.133)" fill="#fff"/>
    <path id="Path_20" data-name="Path 20" d="M106.9,92.066a.363.363,0,0,1,.013-.071l1.208-3.961c.071-.228.364-.338.662-.338s.591.11.662.338l1.214,3.961a.333.333,0,0,1,.013.071c0,.24-.37.416-.649.416-.162,0-.292-.052-.331-.188l-.221-.812H108.1l-.221.812c-.039.136-.169.188-.331.188C107.272,92.481,106.9,92.306,106.9,92.066Zm2.357-1.363-.474-1.741-.474,1.741Zm0,0" transform="translate(-94.992 -77.482)" fill="#fff"/>
    <path id="Path_21" data-name="Path 21" d="M288.343.5H267.891A3.575,3.575,0,0,0,264.32,4.07V46.928a3.575,3.575,0,0,0,3.571,3.571h20.451a3.575,3.575,0,0,0,3.571-3.571V32.592a.836.836,0,1,0-1.671,0v9.433H265.991V8.973h24.251V27.392a.836.836,0,1,0,1.671,0V4.07A3.575,3.575,0,0,0,288.343.5Zm1.9,43.2v3.232a1.9,1.9,0,0,1-1.9,1.9H267.891a1.9,1.9,0,0,1-1.9-1.9V43.7Zm0-36.394H265.991V4.07a1.9,1.9,0,0,1,1.9-1.9h20.451a1.9,1.9,0,0,1,1.9,1.9Zm0,0" transform="translate(-234.873)" fill="#fff"/>
    <path id="Path_22" data-name="Path 22" d="M362.234,406.421h4.292a.836.836,0,0,0,0-1.671h-4.292a.836.836,0,1,0,0,1.671Zm0,0" transform="translate(-321.135 -359.214)" fill="#fff"/>
    <path id="Path_23" data-name="Path 23" d="M347.6,29.172h-2a.836.836,0,1,0,0,1.671h2a.836.836,0,1,0,0-1.671Zm0,0" transform="translate(-306.356 -25.479)" fill="#fff"/>
    <path id="Path_24" data-name="Path 24" d="M387.949,29.172h-3.691a.836.836,0,1,0,0,1.671h3.691a.836.836,0,0,0,0-1.671Zm0,0" transform="translate(-340.706 -25.479)" fill="#fff"/>
    <path id="Path_25" data-name="Path 25" d="M377.212,89.2c0-.922-.649-1.156-1.3-1.156h-1.331c-.221,0-.442.1-.442.312v4.13c0,.162.169.305.442.305h1.441a1.211,1.211,0,0,0,1.306-1.4v-.136a.946.946,0,0,0-.669-1.039,1.011,1.011,0,0,0,.552-1.019Zm-2.065-.273h.682c.247,0,.37.227.37.454a.4.4,0,0,1-.37.448h-.682Zm1.169,2.383c0,.416-.195.6-.52.6h-.649v-1.3h.649c.325,0,.52.156.52.6Zm0,0" transform="translate(-332.458 -77.791)" fill="#fff"/>
    <path id="Path_26" data-name="Path 26" d="M314.434,147.434V140.7a1.632,1.632,0,0,0-1.631-1.631H294.927A1.633,1.633,0,0,0,293.3,140.7v6.732a1.633,1.633,0,0,0,1.631,1.631H312.8A1.632,1.632,0,0,0,314.434,147.434Zm-16.452-.04,3.777-3.775,3,3.376a.835.835,0,0,0,1.39-.889l1.386-1.386,2.373,2.674Zm14.781,0h-.626l-3.552-4a1.394,1.394,0,0,0-2.027-.061l-1.5,1.5-2.25-2.536a1.393,1.393,0,0,0-2.026-.061l-5.168,5.166h-.65v-6.651h17.8Zm0,0" transform="translate(-260.621 -123.134)" fill="#fff"/>
    <path id="Path_27" data-name="Path 27" d="M296.64,242.441h-2.011a.836.836,0,1,0,0,1.671h2.011a.836.836,0,0,0,0-1.671Zm0,0" transform="translate(-261.062 -214.988)" fill="#fff"/>
    <path id="Path_28" data-name="Path 28" d="M354.328,242.441H339.907a.836.836,0,1,0,0,1.671h14.422a.836.836,0,1,0,0-1.671Zm0,0" transform="translate(-301.296 -214.988)" fill="#fff"/>
    <path id="Path_29" data-name="Path 29" d="M296.64,271.918h-2.011a.836.836,0,1,0,0,1.671h2.011a.836.836,0,0,0,0-1.671Zm0,0" transform="translate(-261.062 -241.181)" fill="#fff"/>
    <path id="Path_30" data-name="Path 30" d="M354.328,271.918H339.907a.836.836,0,1,0,0,1.671h14.422a.836.836,0,0,0,0-1.671Zm0,0" transform="translate(-301.296 -241.181)" fill="#fff"/>
    <path id="Path_31" data-name="Path 31" d="M296.64,301.395h-2.011a.836.836,0,1,0,0,1.671h2.011a.836.836,0,0,0,0-1.671Zm0,0" transform="translate(-261.062 -267.374)" fill="#fff"/>
    <path id="Path_32" data-name="Path 32" d="M354.328,301.395H339.907a.836.836,0,1,0,0,1.671h14.422a.836.836,0,1,0,0-1.671Zm0,0" transform="translate(-301.296 -267.374)" fill="#fff"/>
    <path id="Path_33" data-name="Path 33" d="M296.64,330.871h-2.011a.836.836,0,1,0,0,1.671h2.011a.836.836,0,0,0,0-1.671Zm0,0" transform="translate(-261.062 -293.566)" fill="#fff"/>
    <path id="Path_34" data-name="Path 34" d="M354.328,330.871H339.907a.836.836,0,1,0,0,1.671h14.422a.836.836,0,0,0,0-1.671Zm0,0" transform="translate(-301.296 -293.566)" fill="#fff"/>
  </g>
</svg>
