<svg xmlns="http://www.w3.org/2000/svg" width="52.956" height="50"><g data-name="031-computer-2" fill="#fff"><path data-name="Path 1" d="M52.176 41.246h-2.234V13.327a3.113 3.113 0 0 0-3.109-3.109h-8.754l-6.8-6.8a1.5 1.5 0 0 0-2.127 0l-4.959 4.951V1.501a1.505 1.505 0 0 0-1.5-1.5h-9.968a1.506 1.506 0 0 0-1.5 1.5v8.713h-5.1a3.113 3.113 0 0 0-3.109 3.109v27.923H.78a.78.78 0 0 0-.78.78v4.656a3.323 3.323 0 0 0 3.318 3.319h46.319a3.323 3.323 0 0 0 3.319-3.319v-4.656a.78.78 0 0 0-.78-.78zM30.212 4.544l6.978 6.979-5.72 5.721-6.979-6.979zM32.1 19.101h8.082v9.86H32.1zm-8.729-7.71l6.15 6.149H18.077l-.429-.429zm7.129 7.71v9.86h-8.081v-9.86zm-9.642 0v9.86h-3.4a4.691 4.691 0 0 1-4.686-4.685v-.489a4.691 4.691 0 0 1 4.691-4.686h3.4zM12.773 1.552h9.869v8.091h-9.869zm0 9.678h8.56L16 16.56l-2.085 2.085a6.3 6.3 0 0 0-.818.676h-.327zm4.69 19.288H40.23a1.51 1.51 0 0 0 1.509-1.509v-9.964a1.51 1.51 0 0 0-1.509-1.509h-6.86l2.082-2.082h8.767a.078.078 0 0 1 .078.078v8.485a.78.78 0 0 0 1.561 0v-8.485a1.64 1.64 0 0 0-1.638-1.638h-7.207l1.308-1.308a1.491 1.491 0 0 0 .418-.809h8.094a1.551 1.551 0 0 1 1.549 1.549v27.92h-2.524V28.901a.78.78 0 1 0-1.561 0v12.345H8.659V15.532a.078.078 0 0 1 .078-.078h2.485v8.818a6.253 6.253 0 0 0 6.246 6.246zM4.575 13.326a1.55 1.55 0 0 1 1.549-1.549h5.1v2.117H8.736A1.64 1.64 0 0 0 7.1 15.532v25.714H4.575zM51.4 46.681a1.76 1.76 0 0 1-1.758 1.758H3.318a1.76 1.76 0 0 1-1.757-1.758v-3.875h15.771l1.012 2.315a1.3 1.3 0 0 0 1.192.78H21.1a.78.78 0 1 0 0-1.56h-1.4l-.671-1.534H33.92l-.67 1.534h-7.327a.78.78 0 1 0 0 1.56h7.5a1.3 1.3 0 0 0 1.192-.78l1.012-2.315H51.4zm0 0"/><path data-name="Path 2" d="M14.04 24.027a2.667 2.667 0 1 0 2.667-2.667 2.669 2.669 0 0 0-2.667 2.667zm3.782 0a1.115 1.115 0 1 1-1.115-1.115 1.116 1.116 0 0 1 1.115 1.115zm0 0"/></g></svg>