<svg xmlns="http://www.w3.org/2000/svg" width="52.956" height="50" viewBox="0 0 52.956 50">
  <g id="_031-computer-2" data-name="031-computer-2" transform="translate(0 -0.499)">
    <path id="Path_1" data-name="Path 1" d="M52.176,41.745H49.942V13.826a3.113,3.113,0,0,0-3.109-3.109H38.079l-6.8-6.8a1.5,1.5,0,0,0-2.127,0L24.193,8.868V2a1.505,1.505,0,0,0-1.5-1.5H12.725a1.506,1.506,0,0,0-1.5,1.5v8.713h-5.1a3.113,3.113,0,0,0-3.109,3.109V41.745H.78a.78.78,0,0,0-.78.78v4.656A3.323,3.323,0,0,0,3.318,50.5H49.637a3.323,3.323,0,0,0,3.319-3.319V42.525a.78.78,0,0,0-.78-.78ZM30.212,5.043l6.978,6.979L31.47,17.743l-6.979-6.979ZM32.1,19.6h8.082v9.86H32.1Zm-8.729-7.71,6.15,6.149H18.077l-.429-.429ZM30.5,19.6v9.86H22.419V19.6Zm-9.642,0v9.86h-3.4a4.691,4.691,0,0,1-4.686-4.685v-.489A4.691,4.691,0,0,1,17.463,19.6h3.4ZM12.773,2.051h9.869v8.091H12.773Zm0,9.678h8.56L16,17.059l-2.085,2.085a6.3,6.3,0,0,0-.818.676h-.327Zm4.69,19.288H40.23a1.51,1.51,0,0,0,1.509-1.509V19.544a1.51,1.51,0,0,0-1.509-1.509h-6.86l2.082-2.082h8.767a.078.078,0,0,1,.078.078v8.485a.78.78,0,0,0,1.561,0V16.031a1.64,1.64,0,0,0-1.638-1.638H37.013l1.308-1.308a1.491,1.491,0,0,0,.418-.809h8.094a1.551,1.551,0,0,1,1.549,1.549V41.745H45.858V29.4a.78.78,0,1,0-1.561,0V41.745H8.659V16.031a.078.078,0,0,1,.078-.078h2.485v8.1c0,.076,0,.152,0,.229v.489a6.253,6.253,0,0,0,6.246,6.246ZM4.575,13.825a1.55,1.55,0,0,1,1.549-1.549h5.1v2.117H8.736A1.64,1.64,0,0,0,7.1,16.031V41.745H4.575ZM51.4,47.18a1.76,1.76,0,0,1-1.758,1.758H3.318A1.76,1.76,0,0,1,1.561,47.18V43.305H17.332l1.012,2.315a1.3,1.3,0,0,0,1.192.78H21.1a.78.78,0,1,0,0-1.56h-1.4l-.671-1.534H33.92L33.25,44.84H25.923a.78.78,0,1,0,0,1.56h7.5a1.3,1.3,0,0,0,1.192-.78l1.012-2.315H51.4Zm0,0" transform="translate(0 0)" fill="#fff"/>
    <path id="Path_2" data-name="Path 2" d="M135.75,209.69a2.667,2.667,0,1,0,2.667-2.667A2.669,2.669,0,0,0,135.75,209.69Zm3.782,0a1.115,1.115,0,1,1-1.115-1.115A1.116,1.116,0,0,1,139.532,209.69Zm0,0" transform="translate(-121.71 -185.164)" fill="#fff"/>
  </g>
</svg>
